<svg xmlns="http://www.w3.org/2000/svg" width="233.369" height="209.49" viewBox="0 0 233.369 209.49">
  <g id="email_sent" transform="translate(0 0)">
    <path id="Path_9302" data-name="Path 9302" d="M549.865,274.275a.408.408,0,0,1-.234-.073L436.4,195.347a2.053,2.053,0,0,0-2.345,0L321.644,274.2a.409.409,0,0,1-.47-.671L433.587,194.68a2.875,2.875,0,0,1,3.284-.005L550.1,273.53a.409.409,0,0,1-.234.745Z" transform="translate(-318.543 -194.163)" fill="#3f3d56"/>
    <path id="Path_9303" data-name="Path 9303" d="M23.264,87.821l107.273-79.5L238.624,93.478l-102.56,60.8L80.383,141.585Z" transform="translate(-13.739 -4.913)" fill="#e6e6e6"/>
    <path id="Path_9304" data-name="Path 9304" d="M409.239,643.561h-53a2.476,2.476,0,1,1,0-4.952h53a2.476,2.476,0,1,1,0,4.952Z" transform="translate(-337.895 -456.644)" fill="#3091be"/>
    <path id="Path_9305" data-name="Path 9305" d="M375.257,617.561H356.244a2.476,2.476,0,1,1,0-4.952h19.014a2.476,2.476,0,1,1,0,4.952Z" transform="translate(-337.895 -441.289)" fill="#3091be"/>
    <path id="Path_9306" data-name="Path 9306" d="M506.833,336.811a3.1,3.1,0,0,1-1.175-.23L439.5,309.129V223.2a2.869,2.869,0,0,1,2.866-2.866h126.92a2.869,2.869,0,0,1,2.866,2.866v85.986l-.124.053-63.984,27.325A3.118,3.118,0,0,1,506.833,336.811Z" transform="translate(-388.527 -209.621)" fill="#fff"/>
    <path id="Path_9307" data-name="Path 9307" d="M506.538,336.72a3.305,3.305,0,0,1-1.253-.245L439,308.971V222.908a3.074,3.074,0,0,1,3.071-3.071h126.92a3.074,3.074,0,0,1,3.071,3.071v86.122L507.828,336.46a3.32,3.32,0,0,1-1.29.26Zm-66.719-28.3L505.6,335.718a2.5,2.5,0,0,0,1.911-.011l63.734-27.218V222.908a2.255,2.255,0,0,0-2.252-2.252H442.071a2.254,2.254,0,0,0-2.252,2.252Z" transform="translate(-388.232 -209.326)" fill="#3f3d56"/>
    <path id="Path_9308" data-name="Path 9308" d="M545.5,387.837h-.082l-47,20.07-64.307,27.46a2.074,2.074,0,0,1-1.589.008l-66.346-27.525-48.156-19.98-.074-.033h-.082A2.869,2.869,0,0,0,315,390.7V515.166a2.869,2.869,0,0,0,2.866,2.866H545.5a2.869,2.869,0,0,0,2.866-2.866V390.7A2.869,2.869,0,0,0,545.5,387.837Zm2.047,127.329a2.048,2.048,0,0,1-2.047,2.047H317.866a2.048,2.048,0,0,1-2.047-2.047V390.7a2.052,2.052,0,0,1,1.969-2.047l48.389,20.078,66.031,27.4a2.915,2.915,0,0,0,2.227-.012L498.42,408.8l47.165-20.139a2.054,2.054,0,0,1,1.965,2.047Z" transform="translate(-315 -308.543)" fill="#3f3d56"/>
    <path id="Path_9309" data-name="Path 9309" d="M549.192,326.217a11.258,11.258,0,0,1-6.774-2.25l-.121-.091-25.511-19.532a11.334,11.334,0,1,1,13.787-17.994L547.1,299.02l39.05-50.926a11.334,11.334,0,0,1,15.891-2.1l-.243.33.249-.325a11.347,11.347,0,0,1,2.1,15.891l-45.932,59.9a11.339,11.339,0,0,1-9.017,4.423Z" transform="translate(-431.548 -223.393)" fill="#3091be"/>
  </g>
</svg>
