<svg xmlns="http://www.w3.org/2000/svg" width="28.5" height="28.5" viewBox="0 0 28.5 28.5">
  <g id="Group_8878" transform="translate(-219.168 -300.542)">
    <rect id="Rectangle_5" width="27.5" height="27.5" rx="6.249" transform="translate(219.668 301.042)" fill="none" stroke="#3497fd" stroke-width="1"/>
    <path id="Path_1" d="M-211.5,58.533c.513-.017,1.025,0,1.539,0h.212V55.861c-.274-.028-.56-.067-.847-.081-.526-.024-1.053-.05-1.58-.037a3.864,3.864,0,0,0-2.229.689,3.335,3.335,0,0,0-1.34,2.227,7.826,7.826,0,0,0-.093,1.146c-.015.6,0,1.2,0,1.8v.224H-218.4v2.98h2.538V72.3h3.1V64.818h2.53c.13-.991.256-1.972.389-2.995h-.569c-.72,0-2.371,0-2.371,0s.007-1.477.025-2.118C-212.727,58.827-212.206,58.559-211.5,58.533Z" transform="translate(447.099 251.53)" fill="#3497fd" fill-rule="evenodd"/>
  </g>
</svg>
