<svg xmlns="http://www.w3.org/2000/svg" width="28.5" height="28.5" viewBox="0 0 28.5 28.5">
  <g id="Group_8879" transform="translate(-126.5 -299.793)">
    <path id="Path_8733"  d="M6.249,0h15A6.249,6.249,0,0,1,27.5,6.249v15A6.249,6.249,0,0,1,21.251,27.5h-15A6.249,6.249,0,0,1,0,21.251v-15A6.249,6.249,0,0,1,6.249,0Z" transform="translate(127 300.293)" fill="none" stroke="#ff4f9a" stroke-width="1"/>
    <g id="Group_5"  transform="translate(130.898 307.806)">
      <path id="Path_2"  d="M-279.676,62.442c0,.037-.006.069-.006.1,0,.761,0,2.408,0,2.408h3.34a2.836,2.836,0,0,1-1.226,1.877,3.575,3.575,0,0,1-1.813.583,3.668,3.668,0,0,1-1.353-.157,3.759,3.759,0,0,1-2.572-3.243,3.578,3.578,0,0,1,.075-1.131,3.685,3.685,0,0,1,4.1-2.871,3.364,3.364,0,0,1,1.832.884l1.815-1.817a7.767,7.767,0,0,0-1.105-.811,5.945,5.945,0,0,0-2.959-.8c-.2,0-.4.009-.6.018a4.872,4.872,0,0,0-1.028.16,6.154,6.154,0,0,0-3.347,2.134,6.125,6.125,0,0,0-1.38,3.563,5.883,5.883,0,0,0,.132,1.68,6.169,6.169,0,0,0,2.44,3.728,6.091,6.091,0,0,0,3.329,1.179,6.62,6.62,0,0,0,2.045-.2,5.432,5.432,0,0,0,3.069-2.017,6.689,6.689,0,0,0,1.069-5.259Z" transform="translate(285.907 -57.457)" fill="#ff4f9a"/>
      <path id="Path_3" d="M-261.651,63.5h-2.114V61.325h-1.7V63.5h-2.175v1.7h2.175V67.38h1.7V65.2h2.176V63.5Z" transform="translate(281.292 -58.435)" fill="#ff4f9a"/>
    </g>
  </g>
</svg>
