<svg xmlns="http://www.w3.org/2000/svg" width="18.493" height="23.129" viewBox="0 0 18.493 23.129">
  <g id="Icon_ionic-ios-notifications" transform="translate(-6.761 -3.93)">
    <path id="Path_9293" d="M17.39,31.4c1.8,0,2.781-1.272,2.781-3.064H14.6C14.6,30.128,15.587,31.4,17.39,31.4Z" transform="translate(-1.395 -4.34)" fill="#173a60"/>
    <path id="Path_9294"  d="M25.019,21.059c-.89-1.174-2.642-1.861-2.642-7.116,0-5.394-2.382-7.561-4.6-8.082-.208-.052-.358-.121-.358-.341V5.353a1.411,1.411,0,1,0-2.821,0V5.52c0,.214-.15.289-.358.341-2.226.526-4.6,2.688-4.6,8.082,0,5.255-1.752,5.937-2.642,7.116A1.147,1.147,0,0,0,7.914,22.9H24.106A1.148,1.148,0,0,0,25.019,21.059Z" transform="translate(0 0)" fill="#173a60"/>
  </g>
</svg>
