<svg id="share_1_" data-name="share (1)" xmlns="http://www.w3.org/2000/svg" width="22.999" height="25.09" viewBox="0 0 22.999 25.09">
  <path id="Path_731"  d="M321.463,19.4a3.4,3.4,0,1,1-3.4-3.4A3.4,3.4,0,0,1,321.463,19.4Zm0,0" transform="translate(-299.248 -15.216)" fill="#173a60"/>
  <path id="Path_732"  d="M302.85,8.363a4.182,4.182,0,1,1,4.182-4.182A4.186,4.186,0,0,1,302.85,8.363Zm0-6.8a2.614,2.614,0,1,0,2.613,2.613A2.617,2.617,0,0,0,302.85,1.568Zm0,0" transform="translate(-284.032)" fill="#173a60"/>
  <path id="Path_733" d="M321.463,360.73a3.4,3.4,0,1,1-3.4-3.4A3.4,3.4,0,0,1,321.463,360.73Zm0,0" transform="translate(-299.248 -339.821)" fill="#173a60"/>
  <path id="Path_734"  d="M302.85,349.7a4.182,4.182,0,1,1,4.182-4.182A4.186,4.186,0,0,1,302.85,349.7Zm0-6.8a2.614,2.614,0,1,0,2.613,2.614A2.617,2.617,0,0,0,302.85,342.9Zm0,0" transform="translate(-284.032 -324.605)" fill="#173a60"/>
  <path id="Path_735"  d="M22.8,190.065a3.4,3.4,0,1,1-3.4-3.4A3.4,3.4,0,0,1,22.8,190.065Zm0,0" transform="translate(-15.216 -177.521)" fill="#173a60"/>
  <path id="Path_736"  d="M4.182,179.031a4.182,4.182,0,1,1,4.182-4.182A4.186,4.186,0,0,1,4.182,179.031Zm0-6.8A2.613,2.613,0,1,0,6.8,174.85,2.616,2.616,0,0,0,4.182,172.236Zm0,0" transform="translate(0 -162.305)" fill="#173a60"/>
  <path id="Path_737"  d="M115.395,97.837a1.046,1.046,0,0,1-.519-1.954l9.7-5.53a1.046,1.046,0,1,1,1.035,1.817l-9.7,5.53A1.039,1.039,0,0,1,115.395,97.837Zm0,0" transform="translate(-108.745 -85.794)" fill="#173a60"/>
  <path id="Path_738" d="M125.116,273.841a1.039,1.039,0,0,1-.516-.137l-9.7-5.53a1.046,1.046,0,0,1,1.035-1.817l9.7,5.53a1.046,1.046,0,0,1-.519,1.954Zm0,0" transform="translate(-108.766 -253.173)" fill="#173a60"/>
</svg>
